# xmcd CD database file
#
# Track frame offsets:
#	150
#	18327
#	47932
#	61624
#	79810
#	95446
#	121470
#	149228
#	164862
#	186086
#	200699
#
# Disc length: 2960 seconds
#
# Revision: 0
# Processed by: cddbd v1.4PL0 Copyright (c) Steve Scherf et al.
# Submitted via: CDex 1.50Beta7
#
DISCID=a30b8e0b
DTITLE=KK band - Ve ctvrtek na jare
DYEAR=2002
DGENRE=Jazz
TTITLE0=Pohanka v parku
TTITLE1=Amerika
TTITLE2=Aabb
TTITLE3=Plavun 2
TTITLE4=Grigo!
TTITLE5=Rybaha
TTITLE6=Kombucha
TTITLE7=Sestka vpravo dole
TTITLE8=Ruzovy sprinter
TTITLE9=Krapniky
TTITLE10=Tentyny
EXTD=YEAR: 2002
EXTT0=
EXTT1=
EXTT2=
EXTT3=
EXTT4=
EXTT5=
EXTT6=
EXTT7=
EXTT8=
EXTT9=
EXTT10=
PLAYORDER=
